name Walk4.mot
datacolumns 19
datarows 27
range 2.68000000 2.81000000
endheader

                time	   L_ground_force_vx	   L_ground_force_vy	   L_ground_force_vz	   L_ground_force_px	   L_ground_force_py	   L_ground_force_pz	   R_ground_force_vx	   R_ground_force_vy	   R_ground_force_vz	   R_ground_force_px	   R_ground_force_py	   R_ground_force_pz	   L_ground_torque_x	   L_ground_torque_y	   L_ground_torque_z	   R_ground_torque_x	   R_ground_torque_y	   R_ground_torque_z	
          2.68000000	         -0.00307739	         -0.01197865	          0.00135328	         -0.00002759	          0.00000000	         -0.00001014	         -0.15535301	        885.92397057	        -57.77928461	          0.31033278	          0.00000000	          0.13059845	          0.00000000	          0.00013360	          0.00000000	          0.00000000	          2.64463066	          0.00000000	
          2.68500000	         -0.00394845	         -0.01503950	          0.00058404	         -0.00001387	          0.00000000	         -0.00000566	          0.61673949	        887.22957151	        -58.00050758	          0.31220885	          0.00000000	          0.13101746	          0.00000000	          0.00009742	          0.00000000	          0.00000000	          2.59561392	          0.00000000	
          2.69000000	         -0.00419477	         -0.01581292	          0.00004456	         -0.00000398	          0.00000000	         -0.00000233	          1.38928283	        889.43726152	        -58.11994927	          0.31410402	          0.00000000	          0.13141120	          0.00000000	          0.00006652	          0.00000000	          0.00000000	          2.55104911	          0.00000000	
          2.69500000	         -0.00402097	         -0.01505829	         -0.00030493	          0.00000268	          0.00000000	         -0.00000001	          2.17093335	        892.53456765	        -58.16127264	          0.31600811	          0.00000000	          0.13177687	          0.00000000	          0.00004144	          0.00000000	          0.00000000	          2.50913202	          0.00000000	
          2.70000000	         -0.00359151	         -0.01338343	         -0.00050493	          0.00000674	          0.00000000	          0.00000147	          2.96511312	        896.46511099	        -58.16109351	          0.31791526	          0.00000000	          0.13211416	          0.00000000	          0.00002208	          0.00000000	          0.00000000	          2.46916955	          0.00000000	
          2.70500000	         -0.00303206	         -0.01125091	         -0.00059325	          0.00000881	          0.00000000	          0.00000231	          3.77140403	        901.13247161	        -58.16206099	          0.31982116	          0.00000000	          0.13242470	          0.00000000	          0.00000792	          0.00000000	          0.00000000	          2.43129714	          0.00000000	
          2.71000000	         -0.00243350	         -0.00899355	         -0.00060298	          0.00000944	          0.00000000	          0.00000266	          4.58714200	        906.40838913	        -58.20623658	          0.32172224	          0.00000000	          0.13271100	          0.00000000	         -0.00000179	          0.00000000	          0.00000000	          2.39649957	          0.00000000	
          2.71500000	         -0.00185719	         -0.00683467	         -0.00056152	          0.00000910	          0.00000000	          0.00000268	          5.40867895	        912.14232050	        -58.32952974	          0.32361632	          0.00000000	          0.13297478	          0.00000000	         -0.00000787	          0.00000000	          0.00000000	          2.36612472	          0.00000000	
          2.72000000	         -0.00134073	         -0.00490969	         -0.00049053	          0.00000816	          0.00000000	          0.00000248	          6.23315689	        918.17412466	        -58.55715661	          0.32550159	          0.00000000	          0.13321688	          0.00000000	         -0.00001115	          0.00000000	          0.00000000	          2.34154901	          0.00000000	
          2.72500000	         -0.00090350	         -0.00328693	         -0.00040621	          0.00000691	          0.00000000	          0.00000215	          7.06004633	        924.34239101	        -58.90070262	          0.32737555	          0.00000000	          0.13343624	          0.00000000	         -0.00001237	          0.00000000	          0.00000000	          2.32365867	          0.00000000	
          2.73000000	         -0.00055166	         -0.00198633	         -0.00032001	          0.00000556	          0.00000000	          0.00000177	          7.89144616	        930.49044168	        -59.35688226	          0.32923494	          0.00000000	          0.13362998	          0.00000000	         -0.00001218	          0.00000000	          0.00000000	          2.31245429	          0.00000000	
          2.73500000	         -0.00028240	         -0.00099519	         -0.00023942	          0.00000426	          0.00000000	          0.00000139	          8.73202117	        936.47655975	        -59.90849488	          0.33107562	          0.00000000	          0.13379486	          0.00000000	         -0.00001109	          0.00000000	          0.00000000	          2.30691271	          0.00000000	
          2.74000000	         -0.00008740	         -0.00028088	         -0.00016881	          0.00000309	          0.00000000	          0.00000104	          9.58842295	        942.17901094	        -60.52787977	          0.33289291	          0.00000000	          0.13392760	          0.00000000	         -0.00000951	          0.00000000	          0.00000000	          2.30509613	          0.00000000	
          2.74500000	          0.00004457	          0.00019940	         -0.00011017	          0.00000209	          0.00000000	          0.00000073	         10.46833103	        947.49073116	        -61.18077329	          0.33468220	          0.00000000	          0.13402467	          0.00000000	         -0.00000775	          0.00000000	          0.00000000	          2.30451069	          0.00000000	
          2.75000000	          0.00012567	          0.00049163	         -0.00006386	          0.00000129	          0.00000000	          0.00000047	         11.38113375	        952.31570857	        -61.83149652	          0.33643911	          0.00000000	          0.13408220	          0.00000000	         -0.00000601	          0.00000000	          0.00000000	          2.30267926	          0.00000000	
          2.75500000	          0.00016774	          0.00064015	         -0.00002911	          0.00000067	          0.00000000	          0.00000027	         12.33740190	        956.57459648	        -62.44755421	          0.33815958	          0.00000000	          0.13409680	          0.00000000	         -0.00000441	          0.00000000	          0.00000000	          2.29732526	          0.00000000	
          2.76000000	          0.00018145	          0.00068476	         -0.00000452	          0.00000022	          0.00000000	          0.00000012	         13.34715759	        960.21594554	        -63.00167017	          0.33984026	          0.00000000	          0.13406583	          0.00000000	         -0.00000304	          0.00000000	          0.00000000	          2.28635025	          0.00000000	
          2.76500000	          0.00017590	          0.00065922	          0.00001160	         -0.00000008	          0.00000000	          0.00000001	         14.41833980	        963.22515959	        -63.47181995	          0.34147864	          0.00000000	          0.13398646	          0.00000000	         -0.00000192	          0.00000000	          0.00000000	          2.26788506	          0.00000000	
          2.77000000	          0.00015842	          0.00059070	          0.00002103	         -0.00000027	          0.00000000	         -0.00000006	         15.55415123	        965.63382755	        -63.84034866	          0.34307337	          0.00000000	          0.13385584	          0.00000000	         -0.00000105	          0.00000000	          0.00000000	          2.24092215	          0.00000000	
          2.77500000	          0.00013469	          0.00050004	          0.00002541	         -0.00000037	          0.00000000	         -0.00000010	         16.75118940	        967.52436423	        -64.09090988	          0.34462490	          0.00000000	          0.13367203	          0.00000000	         -0.00000041	          0.00000000	          0.00000000	          2.20524199	          0.00000000	
          2.78000000	          0.00010881	          0.00040236	          0.00002621	         -0.00000041	          0.00000000	         -0.00000011	         17.99897097	        969.03194663	        -64.20455731	          0.34613686	          0.00000000	          0.13343450	          0.00000000	          0.00000003	          0.00000000	          0.00000000	          2.16066655	          0.00000000	
          2.78500000	          0.00008361	          0.00030789	          0.00002465	         -0.00000040	          0.00000000	         -0.00000012	         19.28050025	        970.34139522	        -64.15991308	          0.34761554	          0.00000000	          0.13314514	          0.00000000	          0.00000031	          0.00000000	          0.00000000	          2.10747191	          0.00000000	
          2.79000000	          0.00006084	          0.00022296	          0.00002170	         -0.00000036	          0.00000000	         -0.00000011	         20.57462199	        971.67380591	        -63.93562065	          0.34907011	          0.00000000	          0.13280908	          0.00000000	          0.00000047	          0.00000000	          0.00000000	          2.04623954	          0.00000000	
          2.79500000	          0.00004143	          0.00015087	          0.00001809	         -0.00000031	          0.00000000	         -0.00000010	         21.85857928	        973.26404226	        -63.51443290	          0.35051399	          0.00000000	          0.13243587	          0.00000000	          0.00000053	          0.00000000	          0.00000000	          1.97747999	          0.00000000	
          2.80000000	          0.00002570	          0.00009270	          0.00001434	         -0.00000025	          0.00000000	         -0.00000008	         23.10962310	        975.32432879	        -62.89002955	          0.35196553	          0.00000000	          0.13203914	          0.00000000	          0.00000053	          0.00000000	          0.00000000	          1.90160240	          0.00000000	
          2.80500000	          0.00001358	          0.00004807	          0.00001081	         -0.00000019	          0.00000000	         -0.00000006	         24.30556171	        978.00521978	        -62.07361888	          0.35344814	          0.00000000	          0.13163523	          0.00000000	          0.00000049	          0.00000000	          0.00000000	          1.81857259	          0.00000000	
          2.81000000	          0.00000474	          0.00001565	          0.00000769	         -0.00000014	          0.00000000	         -0.00000005	         25.42529214	        981.36322649	        -61.09875297	          0.35498918	          0.00000000	          0.13124234	          0.00000000	          0.00000042	          0.00000000	          0.00000000	          1.72815400	          0.00000000	
